#!OML:ASF F:\VICON\USERDATA\INSTALL\rory3\rory3.ASF
:FULLY-SPECIFIED
:DEGREES
1
root 2.27908 17.5149 -33.5891 -5.3321 -6.06102 -1.96686
lowerback 19.4809 -0.15005 0.602205
upperback -0.32342 0.333578 3.4576
thorax -11.3627 0.243256 3.39253
lowerneck -11.6831 -2.43024 -3.11303
upperneck 18.7461 -2.31345 -2.14237
head 7.72482 -1.53178 -0.421405
rclavicle -2.18663e-015 2.3059e-014
rhumerus -43.9059 -53.3473 -27.6591
rradius 67.5898
rwrist -75.9621
rhand -18.9351 -4.81918
rfingers 7.12502
rthumb 7.3678 -34.6709
lclavicle -2.18663e-015 2.3059e-014
lhumerus -47.2213 -3.00158 78.5153
lradius 55.8747
lwrist 0.0834686
lhand -4.18563 57.8887
lfingers 7.12502
lthumb 21.5757 86.7068
rfemur -4.79531 -0.899561 26.7411
rtibia 32.5016
rfoot -21.0866 -15.8065
rtoes 15.907
lfemur -13.5932 -2.02052 -12.5129
ltibia 44.9298
lfoot -16.8121 4.3894
ltoes -19.0097
2
root 2.26999 17.5148 -33.5862 -5.373 -6.08713 -1.93154
lowerback 19.6822 -0.173348 0.502736
upperback -0.110209 0.29352 3.60055
thorax -11.2357 0.23216 3.61919
lowerneck -12.3014 -2.5536 -3.67219
upperneck 18.9851 -2.38148 -1.91432
head 7.92813 -1.58722 -0.272773
rclavicle 1.78906e-015 1.43125e-014
rhumerus -43.1201 -53.5245 -28.1779
rradius 67.5137
rwrist -76.056
rhand -18.7083 -5.48321
rfingers 7.12502
rthumb 7.58667 -35.3271
lclavicle 1.78906e-015 1.43125e-014
lhumerus -46.8566 -2.8722 78.9905
lradius 55.4612
lwrist 1.95086
lhand -7.70518 52.608
lfingers 7.12502
lthumb 18.1925 81.7773
rfemur -4.67838 -0.772054 26.7769
rtibia 32.3533
rfoot -21.0678 -15.7594
rtoes 15.9863
lfemur -13.9693 -1.71221 -12.4909
ltibia 45.1591
lfoot -16.7835 4.28594
ltoes -19.8223
3
root 2.25814 17.5144 -33.5949 -5.17063 -6.14059 -2.63412
lowerback 19.96 -0.451579 0.729838
upperback -1.00685 0.0802147 4.09747
thorax -12.408 0.161161 4.14997
lowerneck -9.06754 -1.93397 -4.05055
upperneck 18.3719 -1.62991 -1.99567
head 7.14671 -1.24231 -0.118408
rclavicle 9.93923e-016 -2.22639e-014
rhumerus -43.2767 -51.3044 -28.0213
rradius 67.5006
rwrist -76.3416
rhand -18.5159 -5.93804
rfingers 7.12502
rthumb 7.77241 -35.7752
lclavicle 9.93923e-016 -2.22639e-014
lhumerus -49.1385 -2.51558 79.4682
lradius 55.3648
lwrist 3.64357
lhand -8.85123 56.3208
lfingers 7.12502
lthumb 17.0896 85.5891
rfemur -4.74004 -0.430457 27.7011
rtibia 32.0624
rfoot -20.8827 -16.0995
rtoes 16.1344
lfemur -14.6423 -1.46001 -11.53
ltibia 45.3323
lfoot -16.612 3.60991
ltoes -17.7527
4
root 2.25825 17.5261 -33.5645 -5.42487 -6.15507 -2.14584
lowerback 19.6668 -0.124738 0.783226
upperback -0.226272 0.430527 3.63395
thorax -11.3651 0.283782 3.45861
lowerneck -11.0804 -2.22448 -3.11262
upperneck 18.426 -2.04353 -2.23977
head 7.50957 -1.40507 -0.414996
rclavicle 3.97569e-016 -2.70347e-014
rhumerus -43.9729 -53.2767 -27.5642
rradius 67.4839
rwrist -76.0694
rhand -18.9403 -5.20311
rfingers 7.12502
rthumb 7.36276 -35.055
lclavicle 3.97569e-016 -2.70347e-014
lhumerus -47.3893 -3.62577 79.5946
lradius 55.0906
lwrist 4.23508
lhand -9.29768 57.1815
lfingers 7.12502
lthumb 16.6599 86.4865
rfemur -4.25145 -0.595128 27.0729
rtibia 31.8655
rfoot -20.96 -15.8227
rtoes 16.3445
lfemur -14.5864 -1.44208 -12.0961
ltibia 45.3324
lfoot -17.0051 3.21373
ltoes -14.9764
5
root 2.25329 17.5293 -33.5581 -5.36371 -6.22279 -2.40284
lowerback 19.5549 -0.126473 1.25408
upperback 0.447981 0.508208 3.67731
thorax -10.5431 0.284497 3.19322
lowerneck -13.6276 -2.03325 -3.24679
upperneck 19.1468 -1.66327 -2.01509
head 8.20844 -1.23182 -0.31725
rclavicle -6.75868e-015 3.89618e-014
rhumerus -42.8764 -54.9051 -28.4992
rradius 67.3439
rwrist -75.6586
rhand -19.2293 -4.36394
rfingers 7.12502
rthumb 7.08378 -34.2254
lclavicle -6.75868e-015 3.89618e-014
lhumerus -45.9419 -3.41197 79.5172
lradius 55.1468
lwrist 3.64143
lhand -8.5823 57.4827
lfingers 7.12502
lthumb 17.3485 86.7284
rfemur -4.16386 -0.501212 27.4034
rtibia 31.6676
rfoot -20.8404 -16.2182
rtoes 15.1282
lfemur -15.0609 -1.11289 -11.7801
ltibia 45.3511
lfoot -16.7197 3.17441
ltoes -16.8703
6
root 2.25191 17.5311 -33.5441 -5.38058 -6.20319 -2.32409
lowerback 19.3262 0.0123445 1.34017
upperback 0.85558 0.674199 3.57471
thorax -9.96472 0.350411 2.9701
lowerneck -14.229 -2.35112 -2.48516
upperneck 18.4862 -2.14163 -2.59082
head 8.07994 -1.4544 -0.68789
rclavicle 2.37051e-014 -6.20208e-014
rhumerus -43.15 -56.0523 -28.292
rradius 67.3867
rwrist -75.4698
rhand -19.2467 -4.28472
rfingers 7.12502
rthumb 7.06703 -34.1467
lclavicle 2.37051e-014 -6.20208e-014
lhumerus -45.1061 -3.68332 79.4035
lradius 55.4779
lwrist 2.28454
lhand -6.12191 57.4308
lfingers 7.12502
lthumb 19.7152 86.451
rfemur -4.05347 -0.5823 27.3146
rtibia 31.5739
rfoot -20.9572 -15.8108
rtoes 15.7197
lfemur -15.3229 -0.915237 -11.8931
ltibia 45.1355
lfoot -16.4608 3.43541
ltoes -19.7179
7
root 2.25057 17.5354 -33.5263 -5.33362 -6.06872 -2.1911
lowerback 20.0144 -0.0210987 1.2686
upperback 0.314162 0.655556 3.51551
thorax -10.956 0.351296 2.97407
lowerneck -13.7501 -2.52061 -2.84876
upperneck 19.1494 -2.38804 -2.1737
head 8.22631 -1.5622 -0.517673
rclavicle -2.5842e-015 -8.74653e-015
rhumerus -44.2104 -55.4687 -27.4102
rradius 67.4398
rwrist -75.5643
rhand -19.1963 -4.43131
rfingers 7.12502
rthumb 7.11564 -34.2917
lclavicle -2.5842e-015 -8.74653e-015
lhumerus -46.1942 -4.22944 79.7555
lradius 55.2394
lwrist 4.65234
lhand -10.815 51.8525
lfingers 7.12502
lthumb 15.1987 81.2743
rfemur -4.0022 -0.703495 27.147
rtibia 31.4678
rfoot -20.9045 -16.1352
rtoes 15.8118
lfemur -15.6177 -0.975832 -12.0432
ltibia 44.8741
lfoot -16.9434 3.20849
ltoes -21.5779
8
root 2.24984 17.5415 -33.5086 -5.22972 -5.98624 -2.0658
lowerback 19.8181 -0.0533882 1.19474
upperback 0.317167 0.587616 3.50291
thorax -10.8396 0.322308 3.01878
lowerneck -13.552 -2.47903 -2.87476
upperneck 19.1239 -2.33257 -2.17867
head 8.18231 -1.5374 -0.505683
rclavicle -7.00716e-015 -9.54166e-015
rhumerus -44.3327 -55.6953 -27.2513
rradius 67.368
rwrist -75.3786
rhand -18.9872 -4.63637
rfingers 7.12502
rthumb 7.31751 -34.4898
lclavicle -7.00716e-015 -9.54166e-015
lhumerus -46.2044 -3.82773 79.4854
lradius 55.7283
lwrist 2.2439
lhand -8.07481 50.4176
lfingers 7.12502
lthumb 17.8369 79.6196
rfemur -3.99519 -0.771314 26.9962
rtibia 31.3616
rfoot -20.8693 -16.0137
rtoes 15.6314
lfemur -15.9111 -1.04916 -12.1733
ltibia 44.5041
lfoot -16.7442 2.88659
ltoes -19.921
9
root 2.25121 17.5492 -33.4937 -5.2484 -5.92267 -1.98982
lowerback 19.9039 -0.136031 1.17038
upperback 0.309488 0.480626 3.54521
thorax -10.8924 0.274999 3.11245
lowerneck -13.4913 -2.30121 -2.94985
upperneck 19.1519 -2.05861 -2.2435
head 8.18082 -1.41996 -0.484216
rclavicle 1.97294e-014 -3.33958e-014
rhumerus -44.0222 -55.3711 -27.5354
rradius 67.3366
rwrist -75.5799
rhand -19.1858 -4.49279
rfingers 7.12502
rthumb 7.12578 -34.3528
lclavicle 1.97294e-014 -3.33958e-014
lhumerus -46.3507 -3.62528 79.6465
lradius 55.7948
lwrist 2.18495
lhand -6.77189 53.4749
lfingers 7.12502
lthumb 19.0902 82.558
rfemur -3.82371 -0.818685 26.8859
rtibia 31.1967
rfoot -20.8638 -16.1729
rtoes 15.4754
lfemur -16.0923 -1.10487 -12.2828
ltibia 44.0855
lfoot -16.4128 2.82087
ltoes -18.8977
10
root 2.25298 17.5601 -33.4688 -5.11396 -6.21044 -1.9628
lowerback 19.3257 -0.502289 0.686439
upperback -0.439494 -0.0547061 3.98661
thorax -11.3868 0.076394 4.04778
lowerneck -9.07139 -1.76912 -3.87253
upperneck 17.72 -1.38836 -2.31044
head 6.92993 -1.12841 -0.223389
rclavicle -5.56597e-015 -7.15625e-015
rhumerus -42.8954 -52.3905 -28.5731
rradius 67.3399
rwrist -76.0438
rhand -19.366 -4.46534
rfingers 7.12502
rthumb 6.9519 -34.3312
lclavicle -5.56597e-015 -7.15625e-015
lhumerus -48.9901 -2.05832 79.714
lradius 56.3431
lwrist 1.65707
lhand -6.93083 52.6139
lfingers 7.12502
lthumb 18.9373 81.7121
rfemur -3.7694 -0.605551 26.8555
rtibia 31.004
rfoot -21.0044 -15.8898
rtoes 16.2441
lfemur -16.3043 -0.799808 -12.2944
ltibia 43.6001
lfoot -16.7057 2.9394
ltoes -18.5979
11
root 2.24978 17.5671 -33.4568 -5.08836 -6.24156 -2.00634
lowerback 19.9751 -0.424553 0.861364
upperback -0.3844 0.103738 3.9501
thorax -11.7042 0.142749 3.87722
lowerneck -10.5994 -1.95863 -3.85381
upperneck 18.4414 -1.54785 -2.32003
head 7.43723 -1.22589 -0.265851
rclavicle 2.93704e-014 -2.94201e-014
rhumerus -43.0169 -52.9221 -28.4711
rradius 67.2786
rwrist -76.0002
rhand -19.3335 -4.15603
rfingers 7.12502
rthumb 6.98325 -34.0208
lclavicle 2.93704e-014 -2.94201e-014
lhumerus -48.7709 -2.33499 79.9087
lradius 56.3249
lwrist 2.66451
lhand -7.70612 54.2392
lfingers 7.12502
lthumb 18.1916 83.4086
rfemur -3.62652 -0.416983 26.9498
rtibia 30.81
rfoot -21.0788 -16.0341
rtoes 16.6279
lfemur -16.5297 -0.681525 -12.2128
ltibia 43.0808
lfoot -16.5662 2.90221
ltoes -18.2742
